<?xml version="1.0" encoding="UTF-8"?>
<svg width="188px" height="151px" viewBox="0 0 188 151" version="1.1" xmlns="http://www.w3.org/2000/svg" xmlns:xlink="http://www.w3.org/1999/xlink">
    <!-- Generator: Sketch 48.2 (47327) - http://www.bohemiancoding.com/sketch -->
    <title>Artboard</title>
    <desc>Created with Sketch.</desc>
    <defs></defs>
    <g id="Page-1" stroke="none" stroke-width="1" fill="none" fill-rule="evenodd">
        <g id="Artboard" fill="#404C65" fill-rule="nonzero">
            <g id="小于" transform="translate(15.000000, 14.000000)">
                <path d="M2.88877863,7.29389313 L12.5552214,12.8193893 C12.9842259,13.0928133 13.1227059,13.6550616 12.8697572,14.0964487 C12.6168085,14.5378357 12.0616938,14.7026008 11.6089008,14.470687 L0.494396947,8.11954198 C0.199042253,7.94952413 0.0170013658,7.63468701 0.0170013658,7.29389313 C0.0170013658,6.95309925 0.199042253,6.63826213 0.494396947,6.46824427 L11.6089008,0.117099237 C12.0616938,-0.114814579 12.6168085,0.04995058 12.8697572,0.491337609 C13.1227059,0.932724638 12.9842259,1.49497293 12.5552214,1.76839695 L2.88719084,7.29389313 L2.88877863,7.29389313 Z" id="Shape"></path>
            </g>
            <g id="小于" transform="translate(50.500000, 21.293893) rotate(180.000000) translate(-50.500000, -21.293893) translate(44.000000, 14.000000)">
                <path d="M2.88877863,7.29389313 L12.5552214,12.8193893 C12.9842259,13.0928133 13.1227059,13.6550616 12.8697572,14.0964487 C12.6168085,14.5378357 12.0616938,14.7026008 11.6089008,14.470687 L0.494396947,8.11954198 C0.199042253,7.94952413 0.0170013658,7.63468701 0.0170013658,7.29389313 C0.0170013658,6.95309925 0.199042253,6.63826213 0.494396947,6.46824427 L11.6089008,0.117099237 C12.0616938,-0.114814579 12.6168085,0.04995058 12.8697572,0.491337609 C13.1227059,0.932724638 12.9842259,1.49497293 12.5552214,1.76839695 L2.88719084,7.29389313 L2.88877863,7.29389313 Z" id="Shape"></path>
            </g>
        </g>
    </g>
</svg>
