<?xml version="1.0" encoding="UTF-8"?>
<svg width="20px" height="19px" viewBox="0 0 20 19" version="1.1" xmlns="http://www.w3.org/2000/svg" xmlns:xlink="http://www.w3.org/1999/xlink">
    <!-- Generator: Sketch 48.2 (47327) - http://www.bohemiancoding.com/sketch -->
    <title>系统</title>
    <desc>Created with Sketch.</desc>
    <defs></defs>
    <g id="normal" stroke="none" stroke-width="1" fill="none" fill-rule="evenodd" transform="translate(-1161.000000, -109.000000)">
        <g id="系统" transform="translate(1161.000000, 109.000000)" fill="#404C65" fill-rule="nonzero">
            <path d="M19.9744317,13.9599055 L19.9651821,1.39668427 C19.9790564,1.04057604 19.8495625,0.691404958 19.6067615,0.430104755 C19.3639604,0.168804551 19.0263513,0.0138743386 18.670243,7.46069873e-14 L1.34118355,7.46069873e-14 C0.596593599,0.0254362997 0.0115586309,0.649781924 0.0346825347,1.39668427 L0.0346825347,13.9599055 C-0.0323768178,14.2397049 0.0508692692,14.5333785 0.254359704,14.736869 C0.457850139,14.9403594 0.751523811,15.0236055 1.03132313,14.9565461 L18.977791,14.9565461 C19.2575904,15.0236055 19.5512641,14.9403594 19.7547545,14.736869 C19.9582449,14.5333786 20.041491,14.2397049 19.9744317,13.9599055 Z M5.02019791,12.9632649 L3.5587667,12.9632649 L3.5587667,8.97439016 L5.01788551,8.97439016 L5.01788551,12.9632649 L5.02019791,12.9632649 Z M8.82870618,12.9632649 L7.36958735,12.9632649 L7.36958735,5.98446836 L8.82870618,5.98446836 L8.82870618,12.9632649 Z M12.6395268,12.9632649 L11.180408,12.9632649 L11.180408,1.99559358 L12.6395268,1.99559358 L12.6395268,12.9632649 Z M16.4480351,12.9632649 L14.9889163,12.9632649 L14.9889163,3.99118718 L16.4480351,3.99118718 L16.4480351,12.9632649 Z M12.9956351,15.9554991 L7.01347911,15.9554991 L7.01347911,16.9521397 L2.02796374,16.9521397 L2.02796374,18.9454209 L17.9395274,18.9454209 L17.9811505,16.9521397 L12.9956351,16.9521397 L12.9956351,15.9554991 Z" id="Shape"></path>
        </g>
    </g>
</svg>