<?xml version="1.0" encoding="UTF-8"?>
<svg width="24px" height="22px" viewBox="0 0 24 22" version="1.1" xmlns="http://www.w3.org/2000/svg" xmlns:xlink="http://www.w3.org/1999/xlink">
    <!-- Generator: Sketch 48.2 (47327) - http://www.bohemiancoding.com/sketch -->
    <title>日历</title>
    <desc>Created with Sketch.</desc>
    <defs></defs>
    <g id="normal" stroke="none" stroke-width="1" fill="none" fill-rule="evenodd" transform="translate(-62.000000, -107.000000)">
        <g id="日历" transform="translate(62.000000, 107.000000)" fill="#404C65" fill-rule="nonzero">
            <path d="M21.6,21.6144578 L2.4,21.6144578 C1.07447711,21.6144578 0,20.5399807 0,19.2144578 L0,6.01445783 L24,6.01445783 L24,19.2144578 C24,20.5399807 22.9255229,21.6144578 21.6,21.6144578 Z M15.6,9.61445783 C15.6,8.95182651 15.062747,8.41445783 14.4,8.41445783 C14.2808386,8.41445783 9.71916145,8.41445783 9.6,8.41445783 C8.93736867,8.41445783 8.4,8.95182651 8.4,9.61445783 C8.4,10.2772048 8.93736867,10.8144578 9.6,10.8144578 C9.71916145,10.8144578 10.1038843,10.8144578 10.2,10.8144578 L12.9,10.8144578 L9.6,17.4144578 C9.6,17.7458892 9.86868434,18.0144578 10.2,18.0144578 L11.4,18.0144578 C11.7314313,18.0144578 12,17.7458892 12,17.4144578 L15.6,10.2144578 C15.6,10.1183422 15.6,9.73361928 15.6,9.61445783 Z M0,3.61445783 C0,2.28893494 1.07447711,1.21445783 2.4,1.21445783 L4.92106988,1.21445783 C5.17006265,0.518804819 5.81866988,0.0144578313 6.6,0.0144578313 C7.38133012,0.0144578313 8.02990843,0.518804819 8.27893012,1.21445783 L15.7210988,1.21445783 C15.9700916,0.518804819 16.6186988,0.0144578313 17.4000289,0.0144578313 C18.181359,0.0144578313 18.8299373,0.518804819 19.078959,1.21445783 L21.6,1.21445783 C22.9255229,1.21445783 24,2.28893494 24,3.61445783 L24,4.81445783 L0,4.81445783 L0,3.61445783 Z M16.8,3.61445783 L18,3.61445783 L18,1.21445783 L16.8,1.21445783 L16.8,3.61445783 Z M6,3.61445783 L7.2,3.61445783 L7.2,1.21445783 L6,1.21445783 L6,3.61445783 Z" id="Shape"></path>
        </g>
    </g>
</svg>